HIERARCHY
ROOT Hips
{
  OFFSET -187.679 86.5976 -156.378
  CHANNELS 6 Xposition Yposition Zposition Zrotation Xrotation Yrotation
  JOINT LeftUpLeg
  {
    OFFSET 8.64259 1.95398 -2.38835
    CHANNELS 3 Zrotation Xrotation Yrotation
    JOINT LeftLeg
    {
      OFFSET 43.7702 0 0
      CHANNELS 3 Zrotation Xrotation Yrotation
      JOINT LeftFoot
      {
        OFFSET 40.6238 0 0
        CHANNELS 3 Zrotation Xrotation Yrotation
        JOINT LeftToeBase
        {
          OFFSET 12.7242 0 0
          CHANNELS 3 Zrotation Xrotation Yrotation
          End Site
          {
            OFFSET 0 0 0
          }
        }
      }
    }
  }
  JOINT RightUpLeg
  {
    OFFSET -8.2249 1.95398 -2.59336
    CHANNELS 3 Zrotation Xrotation Yrotation
    JOINT RightLeg
    {
      OFFSET 43.5653 0 0
      CHANNELS 3 Zrotation Xrotation Yrotation
      JOINT RightFoot
      {
        OFFSET 40.6238 0 0
        CHANNELS 3 Zrotation Xrotation Yrotation
        JOINT RightToeBase
        {
          OFFSET 12.7242 0 0
          CHANNELS 3 Zrotation Xrotation Yrotation
          End Site
          {
            OFFSET 0 0 0
          }
        }
      }
    }
  }
  JOINT Spine
  {
    OFFSET 0.165834 0.87714 6.61349
    CHANNELS 3 Zrotation Xrotation Yrotation
    JOINT Spine1
    {
      OFFSET 7.38963 1.71661e-005 0
      CHANNELS 3 Zrotation Xrotation Yrotation
      JOINT Spine2
      {
        OFFSET 11.9445 1.14441e-005 0
        CHANNELS 3 Zrotation Xrotation Yrotation
        JOINT Spine3
        {
          OFFSET 14.7254 4.19617e-005 0
          CHANNELS 3 Zrotation Xrotation Yrotation
          JOINT Spine4
          {
            OFFSET 10.9679 0 0
            CHANNELS 3 Zrotation Xrotation Yrotation
            JOINT RightShoulder
            {
              OFFSET 2.46616 -1.6653 3.69651
              CHANNELS 3 Zrotation Xrotation Yrotation
              JOINT RightArm
              {
                OFFSET 13.0012 0 0
                CHANNELS 3 Zrotation Xrotation Yrotation
                JOINT RightForeArm
                {
                  OFFSET 28.7848 1.52588e-005 0
                  CHANNELS 3 Zrotation Xrotation Yrotation
                  JOINT RightHand
                  {
                    OFFSET 26.5688 1.52588e-005 0
                    CHANNELS 3 Zrotation Xrotation Yrotation
                    End Site
                    {
                      OFFSET 0 0 0
                    }
                  }
                }
              }
            }
            JOINT LeftShoulder
            {
              OFFSET 2.38034 -1.29275 -3.7523
              CHANNELS 3 Zrotation Xrotation Yrotation
              JOINT LeftArm
              {
                OFFSET 16.3182 6.10352e-005 0
                CHANNELS 3 Zrotation Xrotation Yrotation
                JOINT LeftForeArm
                {
                  OFFSET 27.0901 0 0
                  CHANNELS 3 Zrotation Xrotation Yrotation
                  JOINT LeftHand
                  {
                    OFFSET 24.5451 1.52588e-005 0
                    CHANNELS 3 Zrotation Xrotation Yrotation
                    End Site
                    {
                      OFFSET 0 0 0
                    }
                  }
                }
              }
            }
            JOINT Neck
            {
              OFFSET 5.0226 -0.0266342 0
              CHANNELS 3 Zrotation Xrotation Yrotation
              JOINT Head
              {
                OFFSET 6.69363 2.86102e-005 0
                CHANNELS 3 Zrotation Xrotation Yrotation
                End Site
                {
                  OFFSET 0 0 0
                }
              }
            }
          }
        }
      }
    }
  }
}
MOTION
Frames:	15
Frame Time:	0.0416667
-2872.18 198.885 2728.82 113.292 56.9528 75.4466 -133.618 -41.0714 162.486 -5.42687 54.5986 -3.35988 127.245 6.14995 -7.12525 14.4049 11.2651 -38.601 175.668 48.8149 66.3335 -4.52117 11.2547 9.34129 15.7612 5.18279 9.25517 13.9784 -12.5986 22.6219 -1.88757 8.2588 -90.3045 10.3561 -3.8997 -0.265355 -1.30903 -3.9076 -0.0932067 -23.8863 -3.63942 -1.42663 -3.8737 -3.63944 -1.42665 89.6493 -39.3816 -104.027 32.6578 -2.20633 -21.4076 -19.9625 -2.22711 -62.7117 -4.99759 0.150093 -9.52567 -89.1983 -42.6806 78.5496 -34.1905 0.359808 -16.1379 -69.99 -28.3288 -83.7554 37.2421 -16.1182 -46.9055 15.743 0.0326969 -2.82004 -1.58994 0.770872 -3.43524 
-2832.62 201.698 2682.24 110.564 50.5473 77.5531 -129.026 -54.216 161.125 -8.22176 46.363 1.61962 102.437 -3.3395 -6.47195 21.5534 12.4995 -42.2127 173.589 47.1361 72.745 -6.39454 0.858788 3.7504 19.2359 7.94657 12.5686 11.9728 -14.0291 23.8075 -1.11825 8.12622 -90.2828 10.6189 -2.35713 -0.348541 -1.04999 -2.37021 -0.244411 -23.5991 -2.14337 -1.04113 -3.58646 -2.14338 -1.04114 89.6349 -38.884 -104.205 33.2117 -2.60844 -20.4378 -20.8609 -2.91907 -62.7384 -4.68279 0.132849 -9.39149 -89.2881 -42.6255 78.3908 -34.7741 3.80214 -13.8184 -15.5057 -12.7821 -61.752 10.3311 -0.312024 -13.3403 15.6693 0.290932 -1.92128 -1.6342 0.7797 -2.94074 
-2768 212.507 2606.39 104.566 43.1609 83.4259 -131.194 -57.6802 155.223 -4.04945 38.5245 0.000941763 93.5599 -13.6878 -9.69366 9.38347 9.46611 -34.6549 172.899 36.8885 74.401 -5.95494 -7.43539 3.2186 32.9471 13.6897 14.6779 13.2852 -12.8577 22.5641 0.0485858 7.88362 -90.3892 11.1058 -0.0839176 -0.766779 -0.565349 -0.117587 -0.762348 -23.0989 0.150388 -0.756548 -3.08626 0.150411 -0.756551 89.5033 -38.6383 -104.511 33.8395 -2.73736 -21.3249 -22.6967 -3.70959 -63.0489 -3.37648 0.0987879 -9.93508 -89.1628 -42.936 78.6675 -33.6439 3.42321 -14.7593 -16.6603 -12.9122 -59.6213 6.55691 -0.186108 -6.89399 15.125 0.346287 -0.810805 -1.42507 0.532014 -1.87564 
-2682.6 218.235 2508.9 99.5583 35.1813 88.3916 -154.993 -28.2215 139.844 -3.80151 25.3995 -0.62815 83.6972 -31.327 -14.1672 8.41489 9.75561 -35.4702 175.349 14.5691 65.3536 -6.58093 -11.3687 3.12652 59.8151 23.0823 17.1457 14.1335 -12.6756 22.9197 1.3806 7.61217 -90.4798 11.6638 2.52118 -1.21959 -0.00550358 2.46508 -1.32941 -22.5584 2.77105 -0.405045 -2.54578 2.77108 -0.40504 89.6318 -38.6526 -104.282 34.2568 -2.7981 -22.886 -20.0036 -2.88966 -61.9585 -7.18146 0.117222 -7.81035 -89.0194 -42.8555 78.8811 -33.3353 2.23054 -15.1453 -15.3372 -12.1979 -60.3504 2.47939 -0.13206 -4.68029 14.1765 0.188292 0.372218 -2.15917 0.0768563 -1.73879 
-2586.09 215.897 2409.87 97.1017 29.6299 89.7698 -179.555 27.2034 135.67 -6.41277 7.26347 -2.16923 38.9256 -27.8107 -31.6505 6.79703 8.08361 -32.2325 170.276 -13.8022 52.9889 -6.30907 -15.1501 4.26261 96.3802 27.9187 11.2935 15.401 -12.2933 23.2321 2.1834 7.54327 -90.4306 11.8171 4.13949 -1.29863 0.151936 4.07831 -1.47981 -22.4362 4.33808 0.00778283 -2.42356 4.33807 0.00777559 89.9531 -37.5421 -104.061 33.9464 -4.59861 -24.8735 -18.8537 -3.03307 -62.1738 -7.42879 0.148585 -7.85027 -88.9622 -43.3783 79.0938 -32.2065 0.472269 -15.0872 -13.1012 -10.6783 -61.4751 0.766389 -0.0546765 -3.01697 14.7205 0.965419 2.07574 -1.29235 0.381676 -0.231723 
-2491.46 218.113 2322.66 97.5108 27.2135 87.4297 165.301 54.3253 141.184 -5.34047 6.71644 -10.8571 31.6866 -18.6245 -22.7731 13.1951 7.95309 -30.9451 157.246 -31.4216 39.0017 -4.94468 -22.1452 6.44879 121.127 21.296 5.01394 15.6929 -11.5053 21.7682 2.48236 7.7295 -90.1405 11.439 4.87356 -0.774334 -0.223199 4.83477 -0.988574 -22.8311 4.88041 0.729768 -2.81848 4.88042 0.729771 88.9676 -38.7053 -105.429 31.0288 -6.06461 -26.7733 -16.8305 -2.69656 -63.4283 -9.3483 0.230753 -8.27203 -88.8143 -43.6885 79.4004 -29.8917 -0.0995663 -13.9964 -16.9756 -12.001 -65.166 1.07649 -0.14137 -6.01464 15.3126 1.43849 2.8064 -0.836316 0.646765 0.742316 
-2429.46 213.919 2269.33 99.9901 25.3031 82.7873 167.048 55.814 136.313 -4.36247 4.01622 -10.3796 27.9441 -17.2204 -23.395 9.85284 7.69071 -30.961 145.802 -34.6476 26.5948 -6.45089 -27.7141 3.54091 127.92 17.6116 3.61562 19.1255 -10.3471 22.1605 2.50061 8.07357 -89.8693 10.7435 5.04021 -0.200829 -0.917681 5.02649 -0.423044 -23.5282 4.86694 1.32694 -3.51559 4.86695 1.32694 88.9896 -38.0086 -105.617 29.8648 -7.25135 -28.8838 -18.6405 -4.15302 -63.8834 -7.8616 0.15724 -7.83163 -89.1411 -45.7306 79.3385 -31.1606 -3.90202 -13.7281 -14.8344 -11.2208 -67.1222 0.246137 -0.104019 -4.91675 15.3742 2.10753 4.07938 0.13437 0.960073 0.978325 
-2385.18 203.108 2234.46 99.6481 26.4808 80.8543 173.157 54.8624 125.559 -5.22556 12.0543 -7.18556 18.973 -22.7964 -30.5098 6.31257 7.39877 -30.9728 139.525 -37.9497 21.1506 -7.59082 -27.9554 0.267457 113.861 18.3472 4.25342 32.8764 -7.12737 29.8572 2.21001 7.87245 -89.4392 11.1222 4.65928 0.660868 -0.540435 4.68384 0.454703 -23.1326 4.24489 2.033 -3.11993 4.2449 2.033 88.4967 -39.3842 -106.023 32.3215 -7.18039 -27.6269 -19.8215 -4.708 -63.0222 -6.29939 0.126361 -7.96932 -88.8841 -44.1165 79.3847 -33.0933 -5.40641 -11.0524 -14.1781 -11.2084 -67.5506 -0.455426 -0.0937493 -4.60643 15.7191 1.5321 1.61687 -0.219535 1.05471 0.63208 
-2334.08 214.82 2188.36 98.6679 29.7058 80.2967 177.562 50.3334 118.404 -5.87835 17.417 -3.69873 24.4993 -26.7279 -29.4631 7.08822 8.88275 -33.7994 134.024 -44.4409 16.8425 -4.42821 -25.9303 -0.533899 86.0773 20.7618 13.061 17.3081 -13.062 26.7366 1.53198 7.66626 -89.3591 11.5305 3.34761 0.933667 -0.136418 3.38546 0.78527 -22.6966 2.91216 1.89726 -2.68395 2.91216 1.89726 89.0153 -38.2175 -105.503 33.9131 -7.34693 -25.3421 -18.7153 -4.49247 -62.6876 -8.78578 0.0957383 -6.62003 -88.94 -44.3045 79.3388 -33.6986 -5.46066 -9.25245 -13.1019 -10.4774 -66.8165 1.67833 -0.0940998 -4.3957 16.3823 1.42096 1.55898 -0.513725 0.920312 -0.908986 
-2248.67 225.211 2111.77 98.6091 29.8111 81.2248 179.969 33.836 120.318 -6.01822 17.9865 -4.04839 43.2194 -28.9298 -24.2644 6.06868 9.01517 -34.1699 144.018 -42.1244 22.8208 -2.70334 -25.8345 -0.356725 86.0592 23.0637 14.2762 19.0137 -12.5981 27.4322 1.06367 7.69391 -89.4781 11.4791 2.36017 0.799319 -0.189949 2.39306 0.694613 -22.7364 2.0108 1.47189 -2.72373 2.0108 1.47188 89.3665 -37.8782 -104.995 33.0719 -7.60547 -25.9536 -19.7476 -4.98118 -62.1919 -5.73639 0.123315 -8.20146 -88.7077 -43.7813 79.5939 -33.2669 -3.31628 -9.98787 -14.6889 -10.8541 -66.7381 1.45284 -0.120557 -5.27045 16.2688 1.74046 0.587972 -0.525323 1.48038 -1.91746 
-2143.69 229.1 2018.01 101.662 31.8398 81.2307 -173.807 0.677718 124.544 -5.1092 20.8933 -6.94435 79.2908 -24.6635 -13.0838 6.24392 8.62521 -33.3807 171.053 -10.4997 42.26 -3.52932 -9.61241 0.00476204 65.2921 26.6232 21.523 16.0226 -12.0457 23.2857 0.320783 7.92875 -89.6057 11.0131 0.821052 0.702202 -0.657854 0.851161 0.665382 -23.192 0.572073 0.916488 -3.17931 0.572075 0.916482 88.8113 -38.925 -105.628 33.034 -6.57477 -25.2464 -19.0331 -4.00803 -61.9917 -5.67386 0.188017 -9.7645 -88.4869 -42.7828 79.7288 -33.4296 -2.38993 -10.0087 -14.6595 -10.7681 -66.4182 0.192823 -0.111241 -5.26912 15.3014 1.88458 -1.64565 -1.29641 2.23496 -2.91529 
-2039.76 225.998 1919.42 101.614 34.6594 83.3203 -161.435 -33.4564 128.707 -3.97254 26.4453 -8.44728 115.697 -6.85982 -4.03767 6.34711 9.22696 -34.5607 -178.93 38.2631 63.72 -6.4081 0.602116 1.70402 35.2692 10.676 15.261 17.3394 -10.8407 21.7391 -0.243874 7.98616 -89.7953 10.9028 -0.390754 0.445886 -0.768208 -0.370771 0.462644 -23.3037 -0.506712 0.307825 -3.29104 -0.506701 0.30783 88.7116 -39.1358 -105.732 32.6452 -4.57461 -24.1603 -18.7256 -2.61943 -62.638 -5.29674 0.200415 -10.4552 -88.5914 -41.8782 79.3534 -34.3611 -0.845838 -11.7072 -11.936 -8.89168 -66.8499 1.13392 -0.0957265 -4.44922 15.7729 0.966186 -3.93691 -1.31406 1.96133 -4.49816 
-1948.27 233.468 1831.9 100.053 38.287 82.8602 -153.19 -50.2664 131.054 -2.70112 31.6136 -8.42547 130.828 6.72028 -5.57855 7.06243 8.34564 -32.7211 175.196 62.6597 76.5332 -5.14966 3.1314 8.33903 31.087 2.29625 6.78228 17.5677 -10.4099 20.9643 -0.712371 7.8925 -89.5785 11.0937 -1.22235 0.95708 -0.577018 -1.17903 1.00994 -23.1157 -1.45347 0.545421 -3.103 -1.45349 0.545422 89.5786 -39.3685 -104.153 32.7032 -2.55091 -24.5262 -19.5619 -1.87846 -63.0022 -4.29164 0.171763 -11.0871 -88.7381 -41.4466 79.0122 -33.7542 2.09467 -14.8283 -13.1523 -8.72057 -66.7405 2.82905 -0.0697685 -3.81346 16.3928 -0.757249 -5.63523 -0.541658 0.746865 -5.12806 
-1893.77 221.308 1774.87 102.056 41.8292 81.7257 -142.072 -54.7871 142.098 -3.76009 37.7 -7.22987 132.529 9.72821 -7.13855 14.5198 10.0552 -35.7829 175.023 62.9449 78.3159 -6.19576 1.47014 5.73075 25.3757 4.50622 9.61633 20.1983 -10.4999 23.5919 -1.04657 8.02156 -89.5904 10.8407 -1.89456 0.993428 -0.829295 -1.84899 1.07586 -23.3751 -2.1055 0.377903 -3.36244 -2.10551 0.377897 89.5191 -39.5174 -104.21 32.8796 -0.591483 -23.5128 -20.955 -1.5329 -63.6697 -4.50872 0.115922 -11.1777 -89.3496 -41.9712 78.1322 -34.1215 3.20967 -16.4685 -13.0729 -8.36903 -66.0309 4.81142 0.153346 -0.323488 17.1371 -1.19654 -5.82473 -0.0866304 0.3739 -5.95766 
-1851.51 214.321 1728.17 102.134 41.3446 83.8918 -131.566 -57.3806 150.375 -6.6404 40.0898 -1.15478 114.433 3.41457 -5.62186 24.8744 11.8863 -40.3643 174.735 58.3345 81.0563 -6.32534 -3.93882 2.97586 14.7459 9.53528 12.7975 12.8548 -14.281 25.1087 -0.859132 7.84865 -89.8808 11.1796 -1.6545 0.399454 -0.490376 -1.6353 0.471889 -23.0338 -1.69803 -0.116401 -3.02118 -1.69802 -0.116399 89.8931 -38.9548 -103.732 33.8815 -0.954687 -21.5624 -24.4777 -3.26216 -63.2865 -0.947597 -0.0656951 -13.4991 -89.1029 -42.1723 78.5844 -35.4552 3.84385 -14.7051 -13.5337 -8.98881 -64.6884 4.04169 0.0689425 -1.38718 17.1413 -1.22947 -4.85035 -1.37799 0.124215 -6.33724 
